<svg width="403" height="62" viewBox="0 0 403 62" fill="none" xmlns="http://www.w3.org/2000/svg">
<path d="M27.1948 0.602779H38.0215L44.8415 20.8389L51.6615 0.602779H62.5735L52.2583 28.4167L59.9308 47.9639L77.066 0.430554H89.8535L65.2163 61.5694H55.3272L44.8415 35.9083L34.3557 61.5694H24.4667L0 0.430554H12.617L29.8375 47.9639L37.3395 28.4167L27.1948 0.602779Z" fill="white"/>
<path d="M162.262 62C157.829 62 153.794 61.1389 150.157 59.4167C146.576 57.637 143.479 55.312 140.864 52.4417C138.307 49.5139 136.318 46.1843 134.897 42.4528C133.476 38.7213 132.766 34.9037 132.766 31C132.766 26.9241 133.504 23.0204 134.982 19.2889C136.517 15.5574 138.591 12.2565 141.205 9.38611C143.876 6.51574 147.031 4.24815 150.668 2.58333C154.305 0.861108 158.255 0 162.518 0C166.894 0 170.872 0.918518 174.453 2.75556C178.09 4.53519 181.188 6.88889 183.745 9.81667C186.303 12.7444 188.292 16.0741 189.713 19.8056C191.133 23.537 191.844 27.3259 191.844 31.1722C191.844 35.2481 191.105 39.1519 189.627 42.8833C188.15 46.5574 186.104 49.8296 183.489 52.7C180.875 55.513 177.749 57.7806 174.112 59.5028C170.474 61.1676 166.525 62 162.262 62ZM144.701 31C144.701 33.6407 145.098 36.1954 145.894 38.6639C146.69 41.1324 147.826 43.3139 149.304 45.2083C150.839 47.1028 152.686 48.6241 154.845 49.7722C157.062 50.9204 159.562 51.4944 162.347 51.4944C165.189 51.4944 167.69 50.9204 169.849 49.7722C172.066 48.5667 173.913 46.988 175.391 45.0361C176.925 43.0843 178.062 40.9028 178.801 38.4917C179.596 36.0231 179.994 33.5259 179.994 31C179.994 28.3593 179.568 25.8046 178.715 23.3361C177.92 20.8676 176.755 18.6861 175.22 16.7917C173.742 14.8972 171.895 13.4046 169.679 12.3139C167.519 11.1657 165.075 10.5917 162.347 10.5917C159.506 10.5917 156.977 11.1944 154.76 12.4C152.544 13.5481 150.696 15.0981 149.219 17.05C147.741 18.9444 146.604 21.1259 145.809 23.5944C145.07 26.0056 144.701 28.4741 144.701 31Z" fill="white"/>
<path d="M269.324 62C264.891 62 260.856 61.1389 257.219 59.4167C253.638 57.637 250.541 55.312 247.926 52.4417C245.369 49.5139 243.38 46.1843 241.959 42.4528C240.538 38.7213 239.828 34.9037 239.828 31C239.828 26.9241 240.566 23.0204 242.044 19.2889C243.579 15.5574 245.653 12.2565 248.267 9.38611C250.938 6.51574 254.093 4.24815 257.73 2.58333C261.367 0.861108 265.317 0 269.58 0C273.956 0 277.934 0.918518 281.515 2.75556C285.152 4.53519 288.25 6.88889 290.807 9.81667C293.365 12.7444 295.354 16.0741 296.775 19.8056C298.195 23.537 298.906 27.3259 298.906 31.1722C298.906 35.2481 298.167 39.1519 296.689 42.8833C295.212 46.5574 293.166 49.8296 290.551 52.7C287.937 55.513 284.811 57.7806 281.174 59.5028C277.536 61.1676 273.587 62 269.324 62ZM251.763 31C251.763 33.6407 252.16 36.1954 252.956 38.6639C253.752 41.1324 254.888 43.3139 256.366 45.2083C257.901 47.1028 259.748 48.6241 261.907 49.7722C264.124 50.9204 266.624 51.4944 269.409 51.4944C272.251 51.4944 274.752 50.9204 276.911 49.7722C279.128 48.5667 280.975 46.988 282.453 45.0361C283.987 43.0843 285.124 40.9028 285.863 38.4917C286.658 36.0231 287.056 33.5259 287.056 31C287.056 28.3593 286.63 25.8046 285.777 23.3361C284.982 20.8676 283.817 18.6861 282.282 16.7917C280.804 14.8972 278.957 13.4046 276.741 12.3139C274.581 11.1657 272.137 10.5917 269.409 10.5917C266.568 10.5917 264.039 11.1944 261.822 12.4C259.606 13.5481 257.758 15.0981 256.281 17.05C254.803 18.9444 253.667 21.1259 252.871 23.5944C252.132 26.0056 251.763 28.4741 251.763 31Z" fill="white"/>
<path d="M350.555 61.5694V0.430554H372.55C377.494 0.430554 381.814 1.23426 385.508 2.84167C389.259 4.44907 392.385 6.63055 394.885 9.38611C397.386 12.1417 399.262 15.3852 400.512 19.1167C401.762 22.7907 402.387 26.7231 402.387 30.9139C402.387 35.5639 401.677 39.7833 400.256 43.5722C398.892 47.3037 396.903 50.5185 394.289 53.2167C391.674 55.8574 388.52 57.9241 384.826 59.4167C381.189 60.8519 377.096 61.5694 372.55 61.5694H350.555ZM390.538 30.9139C390.538 27.9861 390.14 25.288 389.344 22.8194C388.548 20.3509 387.383 18.2269 385.849 16.4472C384.314 14.6676 382.41 13.2898 380.137 12.3139C377.921 11.338 375.392 10.85 372.55 10.85H362.32V51.15H372.55C375.448 51.15 378.006 50.6333 380.222 49.6C382.496 48.5667 384.371 47.1602 385.849 45.3806C387.383 43.5435 388.548 41.3907 389.344 38.9222C390.14 36.4537 390.538 33.7843 390.538 30.9139Z" fill="white"/>
</svg>
